<?xml version="1.0" encoding="utf-8"?>
<!-- Generator: Adobe Illustrator 27.5.0, SVG Export Plug-In . SVG Version: 6.00 Build 0)  -->
<svg version="1.1" xmlns="http://www.w3.org/2000/svg" xmlns:xlink="http://www.w3.org/1999/xlink" x="0px" y="0px"
	 viewBox="0 0 500 500" style="enable-background:new 0 0 500 500;" xml:space="preserve">
<g id="Floor">
	<g id="Floor_8_">
		<path id="XMLID_1211_" style="fill:#EBEBEB;" d="M128.223,403.868c70.751,37.765,185.462,37.766,256.212,0.001
			c70.751-37.766,70.751-98.995,0-136.76c-70.751-37.765-185.462-37.765-256.213-0.001
			C57.471,304.873,57.471,366.103,128.223,403.868z"/>
	</g>
</g>
<g id="Plants">
	<g id="Plants_2_">
		<g id="XMLID_1206_">
			<path id="XMLID_1210_" style="fill:#27DEBF;" d="M405.243,310.18l-10.324-5.961c0,0-2.529-22.11-0.846-39.233
				c2.364-24.061,17.903-53.013,36.441-46.214c18.538,6.799-8.5,31.303-14.518,51.712
				C409.978,290.893,405.243,310.18,405.243,310.18z"/>
			<path id="XMLID_1209_" style="opacity:0.1;" d="M405.243,310.18l-10.324-5.961c0,0-2.529-22.11-0.846-39.233
				c2.364-24.061,17.903-53.013,36.441-46.214c18.538,6.799-8.5,31.303-14.518,51.712
				C409.978,290.893,405.243,310.18,405.243,310.18z"/>
			<g id="XMLID_1207_">
				<path id="XMLID_1208_" style="fill:#FFFFFF;" d="M399.866,307.475c-0.196,0-0.368-0.147-0.393-0.347
					c-3.511-26.967,6.096-67.804,25.493-83.288c0.173-0.136,0.423-0.108,0.56,0.063c0.137,0.172,0.108,0.422-0.064,0.56
					c-19.19,15.318-28.683,55.805-25.2,82.561c0.029,0.219-0.125,0.418-0.343,0.446
					C399.901,307.474,399.883,307.475,399.866,307.475z"/>
			</g>
		</g>
		<g id="XMLID_1202_">
			<path id="XMLID_1205_" style="fill:#27DEBF;" d="M410.753,314.446l-7.346-4.242c0,0-1.25-15.172,6.189-33.604
				c6.476-16.046,22.544-29.357,30.625-26.56c8.081,2.797,7.88,8.528,3.94,14.539C440.221,270.591,416.25,284.92,410.753,314.446z"
				/>
			<g id="XMLID_1203_">
				<path id="XMLID_1204_" style="fill:#FFFFFF;" d="M406.199,314.844c-0.008,0-0.017,0-0.025-0.001
					c-0.22-0.014-0.386-0.203-0.372-0.423c2.421-37.757,21.522-56.327,32.993-59.163c0.216-0.051,0.43,0.078,0.482,0.291
					c0.053,0.214-0.077,0.43-0.291,0.482c-12.085,2.988-30.123,23.095-32.39,58.44C406.582,314.682,406.408,314.844,406.199,314.844
					z"/>
			</g>
		</g>
		<g id="XMLID_1197_">
			<path id="XMLID_1201_" style="fill:#27DEBF;" d="M107.958,313.12c0,0,1.368-22.173-11.512-37.365
				c-12.88-15.193-29.644-15.144-35.201-12.312c-5.556,2.832-9.272,10.922,0.279,16.712c9.551,5.791,29.86,17.371,33.233,27.711
				L107.958,313.12z"/>
			<path id="XMLID_1200_" style="opacity:0.1;" d="M107.958,313.12c0,0,1.368-22.173-11.512-37.365
				c-12.88-15.193-29.644-15.144-35.201-12.312c-5.556,2.832-9.272,10.922,0.279,16.712c9.551,5.791,29.86,17.371,33.233,27.711
				L107.958,313.12z"/>
			<g id="XMLID_1198_">
				<path id="XMLID_1199_" style="fill:#FFFFFF;" d="M101.94,307.571c-0.252,0-0.469-0.189-0.496-0.446
					c-2.657-24.532-27.17-38.13-36.945-39.667c-0.272-0.043-0.459-0.299-0.416-0.572c0.043-0.273,0.306-0.454,0.572-0.416
					c9.997,1.572,35.067,15.473,37.783,40.548c0.029,0.274-0.169,0.521-0.443,0.551C101.976,307.57,101.959,307.571,101.94,307.571z
					"/>
			</g>
		</g>
		<g id="XMLID_1191_">
			<path id="XMLID_1196_" style="fill:#27DEBF;" d="M97.171,301.944c-3.229-7.36-6.88-10.661-17.383-8.904
				c-10.503,1.758-8.951,1.487-21.851-1.799c-5.415-1.379-11.508-1.597-16.703,0.74c-4.389,1.975-7.674,6.003-3.421,10.26
				c4.778,4.783,11.911,6.388,17.217,10.578c1.145,0.904,2.23,1.97,2.762,3.328c1.387,3.539-1.39,7.528-0.581,11.243
				c0.781,3.588,4.71,5.686,8.374,5.928c3.664,0.242,7.27-0.861,10.918-1.278s7.751,0.028,10.264,2.706
				c2.701,2.879,2.771,7.464,5.28,10.512c3.769,4.577,13.024,5.842,17.993,2.979l13.088-7.545
				c8.654-11.664-4.952-20.9-12.146-29.951C107.493,306.354,99.11,306.365,97.171,301.944z"/>
			<g id="XMLID_1194_">
				<path id="XMLID_1195_" style="fill:#FFFFFF;" d="M115.002,333.669c-0.167,0-0.331-0.084-0.426-0.237
					c-14.931-24.193-55.538-36.427-69.955-37.452c-0.275-0.02-0.483-0.259-0.464-0.534c0.02-0.276,0.285-0.486,0.534-0.464
					c14.568,1.036,55.613,13.421,70.736,37.925c0.145,0.235,0.072,0.543-0.163,0.688
					C115.182,333.645,115.091,333.669,115.002,333.669z"/>
			</g>
			<g id="XMLID_1192_">
				<path id="XMLID_1193_" style="fill:#FFFFFF;" d="M67.706,322.268c-0.152,0-0.304-0.069-0.401-0.202
					c-0.165-0.222-0.118-0.535,0.104-0.699c0.521-0.388,12.918-9.487,24.968-9.671c0,0,0.006,0,0.008,0
					c0.272,0,0.496,0.219,0.5,0.492c0.004,0.276-0.216,0.504-0.492,0.508c-11.73,0.179-24.263,9.381-24.388,9.474
					C67.915,322.236,67.81,322.268,67.706,322.268z"/>
			</g>
		</g>
	</g>
</g>
<g id="Device">
	<g id="Laptop">
		<path id="XMLID_30734_" style="fill:#37474F;" d="M114.071,342.171c0,2.59,1.939,5.81,4.331,7.19l121.326,70.047
			c2.391,1.381,6.269,1.381,8.66,0l166.007-95.844c2.391-1.381,4.33-4.6,4.33-7.19c0-2.591-1.938-5.81-4.33-7.191l-121.326-70.047
			c-2.391-1.381-6.269-1.381-8.66,0L118.4,334.981C116.009,336.361,114.071,339.581,114.071,342.171z"/>
		<path id="XMLID_30733_" style="fill:#263238;" d="M164.127,308.581l-45.727,26.4c-2.391,1.381-4.33,4.6-4.33,7.19
			c0,2.59,1.939,5.81,4.331,7.19l121.326,70.047c1.196,0.69,2.763,1.036,4.33,1.036V308.581H164.127z"/>
		<path id="XMLID_30732_" style="fill:#455A64;" d="M110.009,335.135c-2.243-1.295-4.062-4.584-4.062-7.345l-0.001-144.785
			c0-2.761,1.939-6.119,4.33-7.5l166.007-95.844c2.391-1.381,6.149-1.45,8.393-0.155c2.244,1.295,4.063,4.584,4.063,7.345v144.785
			c0,2.761-1.939,6.119-4.33,7.5L118.4,334.981C116.009,336.361,112.252,336.431,110.009,335.135z"/>
		<path id="XMLID_30731_" style="fill:#263238;" d="M126.258,189.732l-19.043-10.995c-0.783,1.357-1.268,2.887-1.268,4.268
			l0.001,144.785c0,2.761,1.818,6.05,4.062,7.345c2.243,1.295,6.001,1.226,8.392-0.155l18.935-10.932L126.258,189.732z"/>
		<path id="XMLID_30730_" style="fill:#37474F;" d="M114.07,187.696v144.785c0,2.761,1.939,3.881,4.33,2.5l166.008-95.844
			c2.391-1.381,4.33-4.739,4.33-7.5V86.852c0-2.761-1.939-3.881-4.33-2.5L118.4,180.196
			C116.009,181.577,114.07,184.935,114.07,187.696z"/>
		<path id="XMLID_30712_" style="fill:#455A64;" d="M118.4,339.981l121.327,70.047c2.391,1.381,6.269,1.381,8.66,0l166.008-95.845
			c2.392-1.381,2.392-3.619,0-5l-121.326-70.047c-2.391-1.381-6.269-1.381-8.66,0L118.4,334.981
			C116.009,336.361,116.009,338.6,118.4,339.981z"/>
		<path id="XMLID_30711_" style="fill:#FFFFFF;" d="M120.73,188.231l161.349-93.154c1.435-0.828,2.598-0.157,2.598,1.5v125.334
			c0,1.657-1.163,3.672-2.598,4.5L120.73,319.563c-1.435,0.828-2.598,0.157-2.598-1.5V192.731
			C118.132,191.074,119.295,189.06,120.73,188.231z"/>
		<path id="XMLID_30710_" style="fill:#263238;" d="M132.484,336.231l154.091-88.963c1.196-0.69,3.134-0.69,4.33,0l7.881,4.55
			c1.196,0.69,1.196,1.81,0,2.5l-154.114,88.949c-1.196,0.69-3.135,0.69-4.33,0l-7.858-4.536
			C131.288,338.041,131.288,336.922,132.484,336.231z"/>
		<path id="XMLID_30704_" style="fill:#263238;" d="M152.796,347.957l154.089-88.964c1.196-0.69,3.134-0.69,4.33,0l48.477,27.989
			c1.196,0.69,1.196,1.81,0,2.5l-153.913,88.842c-1.196,0.69-3.136,0.693-4.334,0.007L152.8,350.451
			C151.602,349.764,151.6,348.648,152.796,347.957z"/>
		<path id="XMLID_132_" style="fill:#455A64;" d="M290.923,299.019l4.824-2.785c0.205-0.119,0.193-0.318-0.027-0.445l-5.579-3.221
			c-0.22-0.127-0.565-0.134-0.77-0.016l-4.825,2.786c-0.205,0.118-0.193,0.317,0.028,0.444l5.579,3.221
			C290.373,299.13,290.717,299.137,290.923,299.019z M281.402,287.951l-4.825,2.785c-0.205,0.119-0.193,0.318,0.027,0.445
			l5.579,3.221c0.22,0.127,0.565,0.134,0.77,0.016l4.824-2.786c0.205-0.118,0.193-0.317-0.027-0.444l-5.579-3.221
			C281.951,287.84,281.607,287.833,281.402,287.951z M265.815,296.95l-8.165,4.714c-0.205,0.118-0.193,0.317,0.027,0.444
			l5.579,3.221c0.22,0.127,0.565,0.134,0.77,0.016l8.165-4.714c0.205-0.118,0.193-0.317-0.027-0.444l-5.579-3.221
			C266.364,296.839,266.02,296.832,265.815,296.95z M274.351,292.022l-4.825,2.786c-0.204,0.118-0.193,0.317,0.028,0.444
			l5.579,3.221c0.22,0.127,0.565,0.134,0.769,0.016l4.824-2.785c0.205-0.119,0.193-0.317-0.027-0.444l-5.579-3.221
			C274.9,291.91,274.555,291.904,274.351,292.022z M255.424,302.95l-4.824,2.785c-0.205,0.119-0.193,0.317,0.027,0.444l5.579,3.221
			c0.22,0.127,0.564,0.134,0.77,0.016l4.825-2.786c0.205-0.118,0.193-0.317-0.028-0.444l-5.578-3.221
			C255.973,302.838,255.628,302.831,255.424,302.95z M248.372,307.021l-4.824,2.785c-0.205,0.118-0.193,0.317,0.027,0.444
			l5.579,3.221c0.22,0.127,0.565,0.135,0.77,0.016l4.825-2.785c0.205-0.119,0.193-0.317-0.027-0.444l-5.579-3.22
			C248.922,306.91,248.577,306.902,248.372,307.021z M270.316,320.119l4.825-2.786c0.204-0.118,0.193-0.317-0.028-0.444
			l-5.578-3.221c-0.22-0.127-0.565-0.134-0.77-0.016l-4.824,2.785c-0.205,0.119-0.193,0.317,0.027,0.445l5.579,3.221
			C269.766,320.23,270.111,320.237,270.316,320.119z M263.265,324.19l4.824-2.785c0.205-0.119,0.193-0.317-0.028-0.445l-5.578-3.22
			c-0.22-0.127-0.565-0.134-0.77-0.016l-4.825,2.786c-0.205,0.118-0.193,0.318,0.027,0.444l5.579,3.221
			C262.715,324.301,263.06,324.308,263.265,324.19z M256.214,328.261l4.825-2.786c0.205-0.118,0.193-0.317-0.027-0.444l-5.578-3.221
			c-0.22-0.127-0.565-0.134-0.77-0.016l-4.824,2.785c-0.205,0.119-0.193,0.317,0.028,0.444l5.578,3.221
			C255.664,328.372,256.008,328.379,256.214,328.261z M249.162,332.332l4.825-2.785c0.205-0.118,0.193-0.317-0.028-0.444
			l-5.578-3.221c-0.22-0.127-0.565-0.134-0.77-0.016l-4.824,2.785c-0.205,0.118-0.193,0.317,0.027,0.444l5.579,3.22
			C248.613,332.443,248.957,332.45,249.162,332.332z M283.872,303.09l4.824-2.786c0.205-0.118,0.193-0.317-0.027-0.444l-5.579-3.221
			c-0.22-0.127-0.564-0.134-0.769-0.016l-4.824,2.785c-0.205,0.119-0.193,0.318,0.027,0.445l5.579,3.221
			C283.322,303.201,283.666,303.208,283.872,303.09z M277.368,316.047l10.762-6.214c0.205-0.119,0.193-0.317-0.028-0.444
			l-13.548-7.822c-0.22-0.127-0.565-0.134-0.77-0.016l-5.567,3.214c-0.205,0.119-0.193,0.317,0.027,0.445l7.173,4.141
			c0.22,0.127,0.232,0.326,0.027,0.444l-4.453,2.571c-0.205,0.118-0.193,0.317,0.027,0.444l5.579,3.221
			C276.818,316.159,277.163,316.166,277.368,316.047z M241.321,311.092l-4.825,2.786c-0.205,0.118-0.193,0.317,0.028,0.444
			l5.579,3.221c0.22,0.127,0.564,0.134,0.77,0.016l4.825-2.785c0.205-0.119,0.193-0.318-0.028-0.445l-5.578-3.221
			C241.87,310.98,241.526,310.974,241.321,311.092z M234.27,315.163l-4.825,2.785c-0.205,0.119-0.193,0.317,0.027,0.445l5.578,3.221
			c0.22,0.127,0.565,0.134,0.77,0.016l4.824-2.786c0.205-0.118,0.193-0.318-0.027-0.444l-5.579-3.221
			C234.819,315.052,234.475,315.045,234.27,315.163z M199.034,360.814c0.22,0.127,0.564,0.134,0.77,0.016l4.825-2.786
			c0.205-0.118,0.192-0.318-0.028-0.445l-5.579-3.221c-0.22-0.127-0.565-0.134-0.77-0.016l-4.824,2.785
			c-0.205,0.119-0.193,0.317,0.027,0.445L199.034,360.814z M177.859,347.732l-4.825,2.785c-0.205,0.118-0.193,0.317,0.027,0.444
			l5.579,3.22c0.22,0.127,0.565,0.135,0.77,0.016l4.825-2.785c0.205-0.118,0.193-0.317-0.028-0.444l-5.579-3.22
			C178.409,347.62,178.064,347.613,177.859,347.732z M189.208,357.284c0.22,0.127,0.565,0.134,0.77,0.016l4.825-2.786
			c0.205-0.118,0.192-0.317-0.028-0.444l-5.578-3.221c-0.22-0.127-0.564-0.134-0.77-0.016l-4.824,2.785
			c-0.205,0.119-0.193,0.317,0.027,0.444L189.208,357.284z M211.484,363.288l4.825-2.785c0.205-0.119,0.193-0.317-0.027-0.444
			l-5.579-3.221c-0.22-0.127-0.565-0.134-0.77-0.015l-4.824,2.785c-0.204,0.118-0.193,0.317,0.028,0.444l5.579,3.221
			C210.934,363.399,211.279,363.406,211.484,363.288z M203.663,367.343c0.22,0.127,0.565,0.134,0.769,0.016l4.825-2.786
			c0.205-0.118,0.193-0.317-0.027-0.444l-5.579-3.221c-0.22-0.127-0.564-0.134-0.77-0.016l-4.825,2.786
			c-0.205,0.118-0.193,0.317,0.028,0.444L203.663,367.343z M184.911,343.66l-4.825,2.785c-0.205,0.119-0.193,0.317,0.028,0.444
			l5.578,3.221c0.22,0.127,0.565,0.134,0.77,0.016l4.824-2.786c0.205-0.118,0.193-0.317-0.027-0.444l-5.579-3.221
			C185.46,343.549,185.115,343.542,184.911,343.66z M220.167,323.305l-4.825,2.785c-0.204,0.119-0.193,0.317,0.028,0.444
			l5.579,3.221c0.22,0.127,0.564,0.134,0.77,0.016l4.825-2.786c0.205-0.118,0.193-0.317-0.027-0.444l-5.579-3.221
			C220.716,323.194,220.372,323.187,220.167,323.305z M191.962,339.59l-4.825,2.785c-0.205,0.118-0.193,0.317,0.027,0.444
			l5.579,3.221c0.22,0.127,0.565,0.135,0.77,0.016l4.824-2.785c0.205-0.119,0.193-0.317-0.028-0.444l-5.578-3.221
			C192.512,339.478,192.167,339.471,191.962,339.59z M227.218,319.234l-4.824,2.786c-0.205,0.118-0.193,0.317,0.028,0.444
			l5.579,3.221c0.22,0.127,0.564,0.135,0.77,0.016l4.825-2.785c0.205-0.119,0.193-0.317-0.027-0.444l-5.579-3.221
			C227.768,319.122,227.423,319.116,227.218,319.234z M213.116,327.376l-4.825,2.785c-0.205,0.118-0.193,0.317,0.027,0.444
			l5.579,3.221c0.22,0.127,0.565,0.135,0.77,0.016l4.824-2.785c0.205-0.118,0.193-0.317-0.027-0.444l-5.579-3.221
			C213.665,327.265,213.321,327.258,213.116,327.376z M206.064,331.447l-4.824,2.786c-0.205,0.118-0.193,0.317,0.027,0.444
			l5.579,3.221c0.22,0.127,0.565,0.134,0.77,0.016l4.825-2.785c0.204-0.119,0.192-0.318-0.028-0.445l-5.578-3.221
			C206.614,331.336,206.269,331.329,206.064,331.447z M199.013,335.518l-4.825,2.785c-0.205,0.119-0.193,0.318,0.027,0.445
			l5.579,3.221c0.22,0.127,0.565,0.134,0.77,0.016l4.825-2.786c0.205-0.118,0.193-0.317-0.028-0.445l-5.579-3.221
			C199.563,335.407,199.218,335.4,199.013,335.518z M235.059,340.474l4.825-2.786c0.205-0.118,0.193-0.318-0.027-0.444l-5.579-3.221
			c-0.22-0.127-0.565-0.134-0.77-0.016l-4.825,2.785c-0.205,0.119-0.193,0.317,0.028,0.445l5.579,3.221
			C234.51,340.585,234.854,340.592,235.059,340.474z M296.989,278.952l-4.824,2.786c-0.205,0.118-0.193,0.317,0.027,0.444
			l5.579,3.221c0.22,0.127,0.565,0.134,0.77,0.016l4.824-2.785c0.205-0.119,0.193-0.317-0.027-0.445l-5.579-3.221
			C297.539,278.84,297.194,278.834,296.989,278.952z M288.453,283.88l-4.824,2.786c-0.205,0.118-0.193,0.317,0.027,0.444
			l5.578,3.221c0.22,0.127,0.565,0.134,0.77,0.016l4.825-2.785c0.205-0.119,0.193-0.317-0.027-0.445l-5.579-3.221
			C289.003,283.768,288.658,283.762,288.453,283.88z M304.04,274.881l-4.824,2.785c-0.205,0.118-0.193,0.317,0.027,0.445l5.579,3.22
			c0.22,0.127,0.565,0.134,0.769,0.016l4.825-2.785c0.205-0.119,0.193-0.318-0.027-0.445l-5.578-3.221
			C304.59,274.77,304.246,274.762,304.04,274.881z M267.542,312.517l4.824-2.785c0.205-0.119,0.193-0.317-0.028-0.445l-5.578-3.221
			c-0.22-0.127-0.565-0.134-0.77-0.016l-4.825,2.786c-0.205,0.118-0.193,0.317,0.027,0.444l5.579,3.221
			C266.993,312.629,267.337,312.636,267.542,312.517z M311.861,270.826c-0.22-0.127-0.565-0.134-0.77-0.016l-4.824,2.785
			c-0.205,0.119-0.193,0.317,0.027,0.444l5.579,3.221c0.22,0.127,0.564,0.134,0.769,0.016l4.825-2.786
			c0.205-0.118,0.193-0.317-0.027-0.444L311.861,270.826z M242.111,336.403l4.824-2.785c0.205-0.119,0.193-0.317-0.028-0.444
			l-5.579-3.221c-0.22-0.127-0.564-0.134-0.77-0.016l-4.825,2.786c-0.205,0.118-0.193,0.317,0.027,0.444l5.578,3.221
			C241.561,336.514,241.906,336.521,242.111,336.403z M328.582,286.478l4.824-2.785c0.205-0.118,0.193-0.318-0.027-0.445
			l-5.579-3.22c-0.22-0.127-0.564-0.134-0.77-0.016l-4.824,2.785c-0.205,0.118-0.193,0.318,0.027,0.445l5.579,3.221
			C328.032,286.59,328.377,286.597,328.582,286.478z M313.561,285.949l4.824-2.786c0.205-0.118,0.193-0.317-0.028-0.444
			l-5.579-3.221c-0.22-0.127-0.564-0.134-0.769-0.016l-4.825,2.785c-0.205,0.119-0.193,0.317,0.027,0.444l5.579,3.221
			C313.011,286.06,313.356,286.067,313.561,285.949z M319.831,275.427c-0.22-0.127-0.565-0.134-0.77-0.016l-4.825,2.786
			c-0.204,0.118-0.193,0.317,0.028,0.444l5.579,3.221c0.22,0.127,0.565,0.134,0.769,0.016l4.825-2.785
			c0.205-0.119,0.193-0.317-0.027-0.444L319.831,275.427z M321.315,274.57l13.548,7.822c0.22,0.127,0.565,0.134,0.77,0.016
			l4.824-2.785c0.205-0.119,0.193-0.318-0.027-0.445l-13.548-7.822c-0.22-0.127-0.565-0.134-0.77-0.016l-4.824,2.785
			C321.083,274.243,321.095,274.443,321.315,274.57z M304.959,283.553l-4.825,2.785c-0.205,0.118-0.193,0.317,0.027,0.444
			l5.579,3.221c0.22,0.127,0.565,0.135,0.77,0.016l4.824-2.785c0.205-0.119,0.193-0.317-0.027-0.444l-5.578-3.221
			C305.508,283.442,305.163,283.435,304.959,283.553z M251.889,314.193l-4.825,2.786c-0.205,0.118-0.193,0.317,0.027,0.444
			l5.579,3.221c0.22,0.127,0.565,0.134,0.77,0.016l4.825-2.785c0.205-0.119,0.193-0.317-0.028-0.444l-5.579-3.221
			C252.438,314.082,252.094,314.075,251.889,314.193z M320.761,290.534c0.219,0.127,0.564,0.134,0.77,0.016l4.825-2.785
			c0.204-0.119,0.193-0.317-0.028-0.444l-5.579-3.221c-0.22-0.127-0.565-0.134-0.769-0.016l-4.825,2.786
			c-0.205,0.118-0.193,0.317,0.027,0.444L320.761,290.534z M258.94,310.122l-4.825,2.785c-0.205,0.119-0.192,0.317,0.028,0.444
			l5.579,3.221c0.22,0.127,0.564,0.134,0.77,0.016l4.825-2.786c0.205-0.118,0.193-0.317-0.027-0.444l-5.578-3.221
			C259.489,310.011,259.145,310.004,258.94,310.122z M206.085,356.742c0.22,0.127,0.565,0.134,0.77,0.016l4.825-2.785
			c0.204-0.119,0.193-0.317-0.028-0.444l-5.579-3.221c-0.22-0.127-0.564-0.134-0.769-0.016l-4.825,2.786
			c-0.205,0.118-0.193,0.317,0.027,0.444L206.085,356.742z M195.478,346.762l-4.825,2.786c-0.205,0.118-0.193,0.317,0.028,0.444
			l5.579,3.221c0.22,0.127,0.565,0.134,0.77,0.016l4.825-2.785c0.205-0.119,0.193-0.317-0.027-0.445l-5.579-3.221
			C196.027,346.65,195.683,346.643,195.478,346.762z M213.905,352.687l4.825-2.785c0.205-0.118,0.193-0.317-0.027-0.444
			l-5.579-3.221c-0.22-0.127-0.565-0.135-0.77-0.016l-4.825,2.785c-0.204,0.118-0.193,0.317,0.028,0.444l5.579,3.221
			C213.356,352.798,213.701,352.806,213.905,352.687z M220.957,348.616l4.825-2.785c0.205-0.119,0.193-0.317-0.027-0.444
			l-5.579-3.221c-0.219-0.127-0.564-0.134-0.77-0.016l-4.824,2.785c-0.205,0.119-0.193,0.317,0.028,0.444l5.579,3.221
			C220.407,348.727,220.752,348.734,220.957,348.616z M228.008,344.545l4.825-2.785c0.205-0.119,0.193-0.317-0.027-0.445
			l-5.579-3.221c-0.22-0.127-0.564-0.134-0.77-0.015l-4.824,2.785c-0.205,0.118-0.193,0.318,0.027,0.444l5.578,3.221
			C227.459,344.656,227.803,344.664,228.008,344.545z M202.529,342.691l-4.824,2.785c-0.205,0.118-0.193,0.317,0.027,0.445
			l5.579,3.221c0.22,0.127,0.564,0.134,0.77,0.016l4.825-2.785c0.205-0.118,0.193-0.318-0.027-0.445l-5.579-3.221
			C203.079,342.58,202.734,342.572,202.529,342.691z M209.581,338.62l-4.825,2.785c-0.205,0.119-0.193,0.317,0.027,0.444
			l5.579,3.221c0.22,0.127,0.565,0.134,0.77,0.016l4.825-2.786c0.204-0.118,0.193-0.317-0.028-0.444l-5.579-3.221
			C210.13,338.508,209.785,338.501,209.581,338.62z M237.786,322.336l-4.825,2.785c-0.205,0.119-0.193,0.317,0.028,0.445l5.579,3.22
			c0.22,0.127,0.564,0.134,0.77,0.016l4.824-2.785c0.205-0.118,0.193-0.318-0.027-0.445l-5.579-3.221
			C238.335,322.224,237.991,322.217,237.786,322.336z M230.734,326.406l-4.825,2.786c-0.205,0.118-0.193,0.318,0.027,0.444
			l5.578,3.221c0.22,0.127,0.565,0.134,0.77,0.016l4.825-2.785c0.205-0.119,0.193-0.317-0.027-0.445l-5.579-3.221
			C231.284,326.295,230.939,326.288,230.734,326.406z M244.837,318.264l-4.825,2.785c-0.205,0.119-0.193,0.317,0.027,0.444
			l5.578,3.221c0.22,0.127,0.565,0.134,0.77,0.016l4.825-2.786c0.205-0.118,0.193-0.317-0.028-0.444l-5.579-3.221
			C245.387,318.153,245.042,318.146,244.837,318.264z M216.632,334.548l-4.825,2.786c-0.205,0.118-0.193,0.317,0.027,0.444
			l5.579,3.221c0.22,0.127,0.564,0.134,0.77,0.016l4.825-2.785c0.205-0.119,0.193-0.317-0.027-0.444l-5.579-3.22
			C217.182,334.438,216.837,334.43,216.632,334.548z M223.683,330.478l-4.825,2.785c-0.205,0.119-0.193,0.317,0.028,0.444
			l5.579,3.221c0.22,0.127,0.564,0.134,0.769,0.016l4.824-2.786c0.205-0.118,0.193-0.317-0.027-0.444l-5.579-3.221
			C224.233,330.366,223.888,330.359,223.683,330.478z M218.535,359.217l4.824-2.786c0.205-0.118,0.193-0.317-0.027-0.444
			l-5.579-3.221c-0.22-0.127-0.564-0.134-0.77-0.016l-4.824,2.785c-0.205,0.119-0.193,0.317,0.027,0.445l5.578,3.221
			C217.986,359.328,218.33,359.335,218.535,359.217z M177.157,355.039l-5.579-3.221c-0.22-0.127-0.564-0.134-0.77-0.016
			l-4.824,2.786c-0.205,0.118-0.193,0.317,0.027,0.444l5.579,3.221c0.22,0.127,0.565,0.134,0.77,0.016l4.824-2.785
			C177.389,355.365,177.376,355.166,177.157,355.039z M187.724,358.141l-5.579-3.221c-0.22-0.127-0.564-0.135-0.77-0.016
			l-7.422,4.285c-0.205,0.118-0.193,0.317,0.028,0.444l5.579,3.22c0.22,0.127,0.564,0.135,0.77,0.016l7.422-4.285
			C187.956,358.466,187.944,358.268,187.724,358.141z M168.597,348.812l-5.579-3.22c-0.22-0.127-0.564-0.135-0.77-0.016
			l-5.938,3.428c-0.205,0.118-0.193,0.318,0.027,0.444l5.578,3.221c0.22,0.127,0.565,0.134,0.77,0.016l5.938-3.428
			C168.83,349.138,168.817,348.939,168.597,348.812z M173.15,346.184c0.22,0.127,0.564,0.134,0.769,0.016l4.824-2.786
			c0.205-0.118,0.193-0.317-0.027-0.444l-5.579-3.221c-0.22-0.127-0.565-0.134-0.77-0.016l-4.824,2.785
			c-0.205,0.119-0.193,0.317,0.027,0.444L173.15,346.184z M197.549,361.67l-5.579-3.221c-0.22-0.127-0.565-0.134-0.77-0.015
			l-9.278,5.356c-0.205,0.119-0.193,0.317,0.028,0.444l5.578,3.221c0.22,0.127,0.564,0.134,0.77,0.016l9.278-5.357
			C197.781,361.996,197.769,361.798,197.549,361.67z M202.179,368.2l-5.579-3.221c-0.219-0.127-0.564-0.135-0.769-0.016
			l-5.938,3.428c-0.205,0.118-0.193,0.318,0.027,0.444l5.579,3.221c0.22,0.127,0.565,0.134,0.77,0.016l5.938-3.428
			C202.411,368.526,202.398,368.327,202.179,368.2z M225.577,315.915c0.22,0.127,0.564,0.134,0.769,0.016l4.824-2.786
			c0.205-0.118,0.193-0.317-0.027-0.444l-5.579-3.221c-0.22-0.127-0.565-0.134-0.77-0.016l-4.824,2.785
			c-0.205,0.119-0.193,0.317,0.027,0.444L225.577,315.915z M211.474,324.057c0.22,0.127,0.565,0.134,0.77,0.016l4.825-2.786
			c0.205-0.118,0.193-0.317-0.028-0.444l-5.579-3.221c-0.22-0.127-0.564-0.134-0.77-0.016l-4.825,2.785
			c-0.205,0.119-0.193,0.317,0.027,0.445L211.474,324.057z M180.201,342.112c0.22,0.127,0.565,0.135,0.77,0.016l4.825-2.785
			c0.205-0.118,0.193-0.317-0.027-0.444l-5.579-3.221c-0.22-0.127-0.564-0.134-0.77-0.016l-4.825,2.785
			c-0.205,0.118-0.193,0.317,0.027,0.444L180.201,342.112z M218.525,319.986c0.22,0.127,0.565,0.135,0.77,0.016l4.825-2.785
			c0.205-0.118,0.192-0.317-0.028-0.444l-5.578-3.221c-0.22-0.127-0.564-0.134-0.77-0.016l-4.824,2.785
			c-0.205,0.118-0.193,0.317,0.027,0.444L218.525,319.986z M204.423,328.128c0.22,0.127,0.565,0.134,0.77,0.015l4.824-2.785
			c0.205-0.118,0.193-0.318-0.027-0.445l-5.578-3.221c-0.22-0.127-0.565-0.134-0.77-0.016l-4.825,2.785
			c-0.205,0.119-0.193,0.318,0.028,0.445L204.423,328.128z M206.054,368.724c-0.22-0.127-0.565-0.135-0.77-0.016l-7.422,4.285
			c-0.205,0.118-0.193,0.317,0.027,0.444l5.579,3.221c0.22,0.127,0.564,0.135,0.77,0.016l7.422-4.285
			c0.205-0.118,0.193-0.317-0.028-0.444L206.054,368.724z M194.303,333.97c0.22,0.127,0.564,0.134,0.77,0.016l4.825-2.785
			c0.205-0.119,0.193-0.317-0.027-0.445l-5.579-3.221c-0.22-0.127-0.565-0.134-0.77-0.016l-4.825,2.786
			c-0.205,0.118-0.193,0.317,0.027,0.444L194.303,333.97z M187.252,338.042c0.22,0.127,0.565,0.134,0.77,0.016l4.824-2.786
			c0.205-0.118,0.193-0.317-0.027-0.444l-5.579-3.221c-0.22-0.127-0.565-0.134-0.77-0.016l-4.825,2.785
			c-0.205,0.119-0.193,0.317,0.028,0.444L187.252,338.042z M336.688,293.302c-0.22-0.127-0.564-0.134-0.77-0.016l-11.875,6.857
			c-0.205,0.118-0.193,0.317,0.027,0.445l5.579,3.221c0.219,0.127,0.564,0.134,0.77,0.016l11.875-6.857
			c0.205-0.118,0.193-0.317-0.027-0.444L336.688,293.302z M321.101,302.301c-0.22-0.127-0.564-0.134-0.77-0.016l-4.825,2.785
			c-0.205,0.119-0.193,0.317,0.027,0.445l5.578,3.221c0.22,0.127,0.565,0.134,0.77,0.015l4.824-2.785
			c0.205-0.118,0.193-0.317-0.028-0.444L321.101,302.301z M225.587,355.146l4.825-2.785c0.205-0.119,0.193-0.318-0.028-0.445
			l-5.579-3.221c-0.22-0.127-0.564-0.134-0.77-0.016l-4.824,2.786c-0.205,0.118-0.193,0.317,0.027,0.444l5.579,3.221
			C225.037,355.257,225.382,355.264,225.587,355.146z M306.999,310.443c-0.22-0.127-0.565-0.134-0.77-0.016l-4.825,2.785
			c-0.205,0.119-0.193,0.318,0.028,0.445l5.578,3.221c0.22,0.127,0.565,0.134,0.77,0.016l4.825-2.786
			c0.205-0.118,0.193-0.317-0.027-0.444L306.999,310.443z M343.74,289.23c-0.22-0.127-0.565-0.134-0.77-0.016L338.145,292
			c-0.204,0.118-0.193,0.317,0.028,0.444l5.579,3.221c0.22,0.127,0.565,0.134,0.77,0.016l4.825-2.785
			c0.205-0.119,0.193-0.317-0.027-0.444L343.74,289.23z M356.37,288.381l-13.549-7.823c-0.22-0.127-0.564-0.134-0.77-0.016
			l-4.825,2.786c-0.205,0.118-0.193,0.317,0.027,0.444l13.548,7.823c0.22,0.127,0.564,0.134,0.77,0.016l4.825-2.786
			C356.602,288.707,356.59,288.507,356.37,288.381z M280.649,325.656c-0.22-0.127-0.565-0.134-0.769-0.016l-5.938,3.428
			c-0.205,0.118-0.193,0.318,0.027,0.445l5.579,3.22c0.22,0.127,0.565,0.134,0.77,0.016l5.938-3.428
			c0.205-0.118,0.193-0.318-0.027-0.444L280.649,325.656z M298.463,315.371c-0.22-0.127-0.565-0.134-0.77-0.016l-7.423,4.286
			c-0.205,0.118-0.193,0.317,0.027,0.444l5.579,3.221c0.22,0.127,0.565,0.134,0.77,0.016l7.422-4.285
			c0.205-0.118,0.193-0.317-0.028-0.444L298.463,315.371z M264.32,335.083c-0.22-0.127-0.565-0.134-0.77-0.016l-39.71,22.927
			c-0.205,0.118-0.193,0.317,0.027,0.444l5.579,3.221c0.22,0.127,0.564,0.135,0.77,0.016l39.71-22.926
			c0.205-0.119,0.193-0.318-0.027-0.445L264.32,335.083z M222.383,359.296c-0.22-0.127-0.565-0.134-0.77-0.016l-5.938,3.428
			c-0.205,0.118-0.193,0.317,0.028,0.445l5.579,3.221c0.22,0.127,0.565,0.134,0.77,0.015l5.938-3.428
			c0.204-0.118,0.193-0.317-0.028-0.444L222.383,359.296z M272.484,330.37c-0.22-0.127-0.565-0.134-0.77-0.016l-5.938,3.428
			c-0.205,0.119-0.193,0.317,0.027,0.444l5.579,3.221c0.22,0.128,0.565,0.135,0.77,0.016l5.938-3.429
			c0.205-0.118,0.193-0.317-0.028-0.444L272.484,330.37z M214.218,364.009c-0.22-0.127-0.564-0.134-0.77-0.016l-5.938,3.428
			c-0.205,0.119-0.192,0.317,0.028,0.444l5.578,3.221c0.22,0.127,0.564,0.134,0.77,0.016l5.938-3.428
			c0.205-0.119,0.193-0.317-0.027-0.445L214.218,364.009z M288.814,320.942c-0.22-0.127-0.564-0.135-0.77-0.016l-5.938,3.428
			c-0.204,0.118-0.192,0.317,0.028,0.444l5.579,3.221c0.22,0.127,0.565,0.134,0.769,0.016l5.938-3.428
			c0.205-0.118,0.193-0.317-0.028-0.444L288.814,320.942z M314.05,306.372c-0.22-0.127-0.565-0.134-0.77-0.016l-4.824,2.786
			c-0.205,0.118-0.193,0.317,0.028,0.444l5.579,3.221c0.22,0.127,0.564,0.134,0.77,0.016l4.824-2.785
			c0.205-0.119,0.193-0.317-0.027-0.445L314.05,306.372z M329.5,295.151l4.824-2.785c0.205-0.119,0.193-0.318-0.027-0.445
			l-5.579-3.22c-0.22-0.127-0.564-0.134-0.77-0.016l-4.825,2.785c-0.204,0.118-0.193,0.317,0.028,0.445l5.579,3.221
			C328.951,295.262,329.296,295.269,329.5,295.151z M297.974,294.948l4.824-2.785c0.205-0.118,0.193-0.317-0.027-0.444l-5.579-3.221
			c-0.22-0.127-0.565-0.135-0.77-0.016l-4.824,2.785c-0.205,0.119-0.193,0.317,0.028,0.444l5.578,3.221
			C297.424,295.059,297.769,295.066,297.974,294.948z M281.997,322.577l14.103-8.142c0.205-0.118,0.193-0.317-0.028-0.444
			l-5.578-3.221c-0.22-0.127-0.565-0.134-0.77-0.016l-14.103,8.142c-0.205,0.118-0.193,0.317,0.027,0.444l5.579,3.22
			C281.448,322.688,281.792,322.696,281.997,322.577z M321.68,299.206c0.22,0.127,0.565,0.134,0.769,0.016l4.825-2.785
			c0.205-0.119,0.193-0.317-0.027-0.445l-5.579-3.221c-0.22-0.127-0.564-0.134-0.769-0.016l-4.825,2.786
			c-0.205,0.118-0.192,0.317,0.027,0.444L321.68,299.206z M314.479,294.621l4.825-2.786c0.204-0.118,0.193-0.317-0.028-0.444
			l-5.579-3.221c-0.22-0.127-0.565-0.134-0.77-0.016l-4.824,2.785c-0.205,0.119-0.193,0.317,0.027,0.444l5.579,3.221
			C313.93,294.732,314.275,294.739,314.479,294.621z M274.945,326.648l4.825-2.786c0.205-0.118,0.193-0.317-0.027-0.444
			l-5.579-3.221c-0.22-0.127-0.565-0.134-0.77-0.016l-4.825,2.786c-0.205,0.118-0.193,0.317,0.028,0.444l5.578,3.221
			C274.396,326.759,274.74,326.767,274.945,326.648z M306.092,308.206c0.22,0.127,0.565,0.134,0.77,0.016l4.824-2.786
			c0.205-0.118,0.193-0.317-0.027-0.444l-5.579-3.221c-0.22-0.127-0.564-0.134-0.77-0.016l-4.825,2.785
			c-0.205,0.119-0.193,0.317,0.027,0.444L306.092,308.206z M239.689,347.004l4.824-2.786c0.205-0.118,0.193-0.317-0.027-0.444
			l-5.579-3.221c-0.22-0.127-0.564-0.134-0.77-0.016l-4.824,2.786c-0.205,0.118-0.193,0.317,0.027,0.444l5.579,3.221
			C239.14,347.115,239.484,347.122,239.689,347.004z M246.74,342.932l4.825-2.785c0.205-0.119,0.193-0.317-0.028-0.444l-5.579-3.221
			c-0.22-0.127-0.564-0.134-0.769-0.015l-4.825,2.785c-0.205,0.118-0.193,0.317,0.027,0.444l5.579,3.221
			C246.191,343.044,246.536,343.051,246.74,342.932z M232.638,351.074l4.825-2.785c0.205-0.118,0.193-0.317-0.027-0.444l-5.579-3.22
			c-0.22-0.127-0.565-0.135-0.77-0.016l-4.824,2.785c-0.205,0.118-0.193,0.317,0.027,0.444l5.579,3.221
			C232.089,351.186,232.433,351.193,232.638,351.074z M260.843,334.79l4.824-2.785c0.205-0.119,0.193-0.318-0.027-0.445
			l-5.579-3.221c-0.22-0.127-0.565-0.134-0.77-0.016l-4.825,2.786c-0.205,0.118-0.193,0.317,0.027,0.444l5.578,3.221
			C260.293,334.902,260.638,334.909,260.843,334.79z M253.792,338.861l4.824-2.785c0.205-0.118,0.193-0.317-0.027-0.444
			l-5.579-3.221c-0.22-0.127-0.565-0.134-0.77-0.016l-4.825,2.785c-0.205,0.119-0.193,0.318,0.028,0.445l5.579,3.221
			C253.242,338.973,253.587,338.98,253.792,338.861z M267.894,330.719l4.825-2.785c0.205-0.118,0.193-0.317-0.027-0.444
			l-5.579-3.221c-0.22-0.127-0.565-0.135-0.77-0.016l-4.825,2.785c-0.205,0.118-0.193,0.317,0.028,0.444l5.579,3.221
			C267.345,330.831,267.689,330.838,267.894,330.719z M300.154,270.494c0.22,0.127,0.565,0.134,0.77,0.016l4.825-2.786
			c0.205-0.118,0.193-0.317-0.027-0.444l-1.485-0.858c-0.22-0.127-0.565-0.134-0.77-0.016l-4.824,2.786
			c-0.204,0.118-0.193,0.317,0.028,0.444L300.154,270.494z M265.46,292.888c0.22,0.127,0.564,0.135,0.77,0.016l4.825-2.785
			c0.205-0.118,0.193-0.317-0.027-0.444l-5.579-3.22c-0.22-0.128-0.565-0.135-0.77-0.016l-4.825,2.786
			c-0.205,0.118-0.193,0.317,0.027,0.444L265.46,292.888z M279.563,284.746c0.22,0.127,0.565,0.134,0.769,0.016l4.825-2.785
			c0.205-0.119,0.193-0.317-0.027-0.445l-5.579-3.221c-0.22-0.127-0.565-0.134-0.77-0.016l-4.825,2.786
			c-0.204,0.118-0.193,0.318,0.028,0.444L279.563,284.746z M256.85,297.859c0.22,0.127,0.564,0.134,0.77,0.016l4.825-2.785
			c0.205-0.118,0.193-0.317-0.028-0.444l-5.578-3.221c-0.22-0.127-0.565-0.134-0.77-0.015l-4.825,2.785
			c-0.205,0.118-0.193,0.317,0.027,0.445L256.85,297.859z M272.511,288.817c0.22,0.127,0.565,0.134,0.77,0.016l4.824-2.786
			c0.204-0.118,0.193-0.317-0.028-0.444l-5.579-3.221c-0.22-0.127-0.565-0.134-0.769-0.016l-4.824,2.785
			c-0.205,0.119-0.193,0.317,0.027,0.444L272.511,288.817z M242.747,306.002c0.22,0.127,0.564,0.134,0.77,0.015l4.824-2.785
			c0.205-0.118,0.193-0.317-0.027-0.445l-5.579-3.22c-0.22-0.127-0.565-0.134-0.77-0.016l-4.825,2.785
			c-0.205,0.119-0.192,0.317,0.028,0.445L242.747,306.002z M249.798,301.931c0.22,0.127,0.565,0.134,0.77,0.016l4.825-2.786
			c0.205-0.118,0.193-0.317-0.028-0.444l-5.578-3.221c-0.22-0.127-0.565-0.134-0.77-0.016l-4.824,2.785
			c-0.205,0.119-0.193,0.317,0.027,0.445L249.798,301.931z M286.051,278.636c0.22,0.127,0.565,0.134,0.77,0.016l4.825-2.786
			c0.205-0.118,0.193-0.317-0.027-0.444l-1.485-0.857c-0.22-0.127-0.565-0.134-0.769-0.016l-4.825,2.786
			c-0.205,0.118-0.193,0.317,0.027,0.444L286.051,278.636z M307.205,266.423c0.22,0.127,0.565,0.134,0.77,0.016l4.825-2.785
			c0.205-0.119,0.193-0.317-0.028-0.444l-1.485-0.858c-0.22-0.127-0.564-0.134-0.77-0.015l-4.825,2.785
			c-0.205,0.118-0.193,0.318,0.028,0.445L307.205,266.423z M318.924,273.189c0.22,0.127,0.565,0.134,0.77,0.016l4.824-2.785
			c0.205-0.119,0.193-0.317-0.027-0.444l-5.579-3.221c-0.22-0.127-0.565-0.134-0.77-0.016l-4.825,2.786
			c-0.205,0.118-0.193,0.317,0.027,0.444L318.924,273.189z M336.552,291.08l4.825-2.786c0.205-0.118,0.193-0.317-0.027-0.444
			l-5.579-3.221c-0.22-0.127-0.565-0.134-0.77-0.016l-4.824,2.785c-0.205,0.119-0.193,0.317,0.028,0.444l5.578,3.221
			C336.002,291.191,336.346,291.198,336.552,291.08z M293.103,274.565c0.22,0.127,0.564,0.135,0.77,0.016l4.825-2.785
			c0.205-0.118,0.193-0.317-0.027-0.444l-1.485-0.857c-0.22-0.127-0.565-0.135-0.77-0.016l-4.825,2.785
			c-0.204,0.119-0.193,0.317,0.028,0.444L293.103,274.565z M235.696,310.073c0.22,0.127,0.565,0.134,0.77,0.016l4.825-2.785
			c0.205-0.119,0.193-0.317-0.027-0.444l-5.579-3.221c-0.22-0.127-0.565-0.134-0.77-0.016l-4.825,2.786
			c-0.204,0.118-0.193,0.317,0.028,0.444L235.696,310.073z"/>
		<polygon id="XMLID_98_" style="fill:#263238;" points="264.368,353.897 317.174,323.41 349.671,342.172 296.864,372.659 		"/>
	</g>
</g>
<g id="Window">
	<g id="Tab_1_">
		<path id="XMLID_1190_" style="fill:#F5F5F5;" d="M147.035,200.256l157.351-90.845c3.077-1.777,5.595-0.323,5.595,3.23v121.873
			c0,1.65-1.169,3.675-2.598,4.5l-161.35,93.152c-1.429,0.825-2.598,0.15-2.598-1.5V206.492
			C143.435,204.205,145.055,201.399,147.035,200.256z"/>
		<path id="XMLID_1189_" style="fill:#27DEBF;" d="M309.98,115.56v-2.919c0-3.553-2.518-5.007-5.595-3.23l-157.351,90.845
			c-1.98,1.143-3.6,3.949-3.6,6.235v5.223L309.98,115.56z"/>
		<path id="XMLID_1188_" style="fill:#FFFFFF;" d="M286.517,122.214c-1.064,0.614-1.927,2.109-1.927,3.337
			c0,1.229,0.863,1.727,1.927,1.112c1.064-0.614,1.927-2.108,1.927-3.337C288.444,122.097,287.581,121.599,286.517,122.214z"/>
		<path id="XMLID_1187_" style="fill:#FFFFFF;" d="M294.164,117.799c-1.064,0.614-1.927,2.109-1.927,3.337
			c0,1.229,0.863,1.727,1.927,1.113c1.064-0.615,1.927-2.109,1.927-3.338C296.091,117.683,295.228,117.185,294.164,117.799z"/>
		<path id="XMLID_1186_" style="fill:#FFFFFF;" d="M301.811,113.384c-1.064,0.615-1.927,2.109-1.927,3.338s0.863,1.727,1.927,1.112
			c1.064-0.614,1.927-2.109,1.927-3.338C303.737,113.268,302.875,112.77,301.811,113.384z"/>
	</g>
</g>
<g id="Magnifying_Glass">
	<g id="Lens_1_">
		<g id="XMLID_1178_">
			<g id="XMLID_1183_">
				
					<rect id="XMLID_1185_" x="168.169" y="267.608" transform="matrix(0.866 0.5 -0.5 0.866 164.3047 -47.9901)" style="fill:#37474F;" width="7.069" height="29.992"/>
				
					<rect id="XMLID_1184_" x="171.467" y="268.492" transform="matrix(0.866 0.5 -0.5 0.866 164.9556 -48.6371)" style="fill:#263238;" width="3.535" height="29.992"/>
			</g>
			<g id="XMLID_1179_">
				<g id="XMLID_1180_">
					<path id="XMLID_1182_" style="fill:#27DEBF;" d="M144.704,344.544c-2.793,4.843-15.985-2.854-13.227-7.637l34.452-53.728
						c0.193-0.302,0.59-0.398,0.9-0.219l6.919,3.994c0.31,0.179,0.425,0.57,0.26,0.888L144.704,344.544z"/>
					<path id="XMLID_1181_" style="opacity:0.1;" d="M144.704,344.544l29.303-56.7c0.165-0.318,0.05-0.709-0.26-0.888l-3.15-1.819
						l-33.613,59.715C140.061,346.357,143.443,346.732,144.704,344.544z"/>
				</g>
			</g>
		</g>
		<g id="XMLID_1166_">
			<path id="XMLID_1174_" style="fill:#27DEBF;" d="M245.966,218.046c-0.01-0.41-0.03-0.81-0.06-1.21c-0.02-0.4-0.05-0.79-0.09-1.18
				c-0.02-0.26-0.05-0.52-0.08-0.78c-0.07-0.68-0.17-1.35-0.28-1.99c-0.05-0.29-0.1-0.59-0.16-0.88c-0.05-0.28-0.11-0.55-0.17-0.82
				c-0.17-0.74-0.35-1.46-0.56-2.15c-0.11-0.33-0.21-0.66-0.32-0.98c-0.02-0.05-0.04-0.1-0.05-0.15c-0.12-0.32-0.23-0.63-0.35-0.93
				c-0.14-0.35-0.28-0.7-0.44-1.03c-0.11-0.25-0.22-0.49-0.35-0.73c-0.07-0.18-0.16-0.35-0.26-0.52c-0.1-0.21-0.21-0.42-0.33-0.62
				c-0.03-0.05-0.05-0.1-0.08-0.14c-0.1-0.18-0.21-0.36-0.32-0.54c-0.07-0.12-0.15-0.23-0.22-0.34c-0.53-0.83-1.1-1.59-1.72-2.29
				c-0.11-0.12-0.22-0.24-0.32-0.36c-0.09-0.1-0.18-0.19-0.27-0.28c-0.11-0.12-0.23-0.23-0.35-0.35c-0.34-0.34-0.68-0.65-1.04-0.93
				c-0.17-0.15-0.35-0.29-0.53-0.42c-0.18-0.14-0.36-0.27-0.55-0.4c-0.29-0.21-0.59-0.41-0.89-0.58c-0.08-0.05-0.16-0.1-0.24-0.15
				l-0.05-0.04c-0.01,0-0.01,0-0.01,0l-14.17-8.18c-0.01,0-0.01,0-0.02,0l-0.08-0.05c-2.6-1.48-5.6-2.25-8.9-2.25
				c-4.64,0-9.88,1.52-15.43,4.72c-19.06,11.01-34.52,37.78-34.52,59.8c0,10.98,3.84,18.7,10.05,22.32l0.06,0.03c0,0,0,0,0,0.01
				l14.18,8.17c0,0.01,0,0.01,0.01,0.01l0.06,0.04v-0.01c0.06,0.03,0.11,0.06,0.17,0.09c0.27,0.16,0.54,0.3,0.82,0.43
				c0.34,0.17,0.69,0.32,1.04,0.46c0.31,0.13,0.63,0.25,0.95,0.35c0.17,0.06,0.34,0.11,0.51,0.15c0.18,0.07,0.36,0.12,0.55,0.16
				c0.19,0.06,0.37,0.1,0.56,0.14c0.14,0.04,0.27,0.07,0.41,0.09c0.24,0.05,0.5,0.1,0.75,0.13c0.06,0.02,0.11,0.03,0.17,0.03
				c0.3,0.05,0.6,0.09,0.9,0.12c5.14,0.54,11.12-0.91,17.52-4.6c19.07-11.01,34.53-37.79,34.53-59.8
				C245.996,219.086,245.986,218.566,245.966,218.046z M222.837,202.476c0.91,3.1,1.09,6.3,1.09,8.4
				c0,19.42-14.21,44.03-31.03,53.74c-2.73,1.57-5.39,2.68-7.87,3.27c-0.9-3.1-1.09-6.3-1.09-8.41c0-19.42,14.21-44.03,31.03-53.74
				C217.696,204.166,220.356,203.066,222.837,202.476z"/>
			<path id="XMLID_1173_" style="opacity:0.1;" d="M186.567,281.554l-13.762-7.943c-6.21-3.63-10.05-11.35-10.05-22.31
				c0-9.82,3.08-20.58,8.17-30.46l14.178,8.176c-5.1,9.88-8.17,20.64-8.17,30.46C176.933,270.217,180.587,277.834,186.567,281.554z"
				/>
			<path id="XMLID_1169_" style="opacity:0.4;fill:#FFFFFF;" d="M245.966,218.046c-0.01-0.41-0.03-0.81-0.06-1.21
				c-0.02-0.4-0.05-0.79-0.09-1.18c-0.02-0.26-0.05-0.52-0.08-0.78c-0.07-0.68-0.17-1.35-0.28-1.99c-0.05-0.29-0.1-0.59-0.16-0.88
				c-0.05-0.28-0.11-0.55-0.17-0.82c-0.17-0.74-0.35-1.46-0.56-2.15c-0.11-0.33-0.21-0.66-0.32-0.98c-0.02-0.05-0.04-0.1-0.05-0.15
				c-0.12-0.32-0.23-0.63-0.35-0.93c-0.14-0.35-0.28-0.7-0.44-1.03c-0.11-0.25-0.22-0.49-0.35-0.73c-0.07-0.18-0.16-0.35-0.26-0.52
				c-0.1-0.21-0.21-0.42-0.33-0.62c-0.03-0.05-0.05-0.1-0.08-0.14c-0.1-0.18-0.21-0.36-0.32-0.54c-0.07-0.12-0.15-0.23-0.22-0.34
				c-0.53-0.83-1.1-1.59-1.72-2.29c-0.11-0.12-0.22-0.24-0.32-0.36c-0.09-0.1-0.18-0.19-0.27-0.28c-0.11-0.12-0.23-0.23-0.35-0.35
				c-0.34-0.34-0.68-0.65-1.04-0.93c-0.17-0.15-0.35-0.29-0.53-0.42c-0.18-0.14-0.36-0.27-0.55-0.4c-0.29-0.21-0.59-0.41-0.89-0.58
				c-6.27-3.81-15.03-3.36-24.71,2.23c-19.07,11.01-34.53,37.78-34.53,59.8c0,11.15,3.96,18.94,10.35,22.48
				c0.27,0.16,0.54,0.3,0.82,0.43c0.34,0.17,0.69,0.32,1.04,0.46c0.31,0.13,0.63,0.25,0.95,0.35c0.17,0.06,0.34,0.11,0.51,0.15
				c0.18,0.07,0.36,0.12,0.55,0.16c0.19,0.06,0.37,0.1,0.56,0.14c0.14,0.04,0.27,0.07,0.41,0.09c0.24,0.05,0.5,0.1,0.75,0.13
				c0.06,0.02,0.11,0.03,0.17,0.03c0.3,0.05,0.6,0.09,0.9,0.12c5.14,0.54,11.12-0.91,17.52-4.6c19.07-11.01,34.53-37.79,34.53-59.8
				C245.996,219.086,245.986,218.566,245.966,218.046z M207.966,273.356c-4.28,2.47-8.4,3.77-11.92,3.77
				c-6.61,0-9.65-4.51-11.02-9.24c-0.9-3.1-1.09-6.3-1.09-8.41c0-19.42,14.21-44.03,31.03-53.74c2.73-1.57,5.39-2.67,7.87-3.26
				c1.42-0.34,2.77-0.51,4.05-0.51c10.93,0,12.1,12.34,12.1,17.65C238.986,239.036,224.786,263.646,207.966,273.356z"/>
			<path id="XMLID_1168_" style="opacity:0.1;" d="M238.986,219.616c0,19.42-14.2,44.03-31.02,53.74c-4.28,2.47-8.4,3.77-11.92,3.77
				c-6.61,0-9.65-4.51-11.02-9.24c2.48-0.59,5.14-1.7,7.87-3.27c16.82-9.71,31.03-34.32,31.03-53.74c0-2.1-0.18-5.3-1.09-8.4
				c1.42-0.34,2.77-0.51,4.05-0.51C237.816,201.966,238.986,214.306,238.986,219.616z"/>
			<path id="XMLID_1167_" style="opacity:0.7;fill:#FFFFFF;" d="M232.946,216.226c0,19.42-14.2,44.03-31.02,53.74
				c-4.28,2.47-8.4,3.77-11.92,3.77c-0.74,0-1.44-0.06-2.09-0.17c-1.38-1.62-2.29-3.62-2.89-5.68c-0.9-3.1-1.09-6.3-1.09-8.41
				c0-19.42,14.21-44.03,31.03-53.74c2.73-1.57,5.39-2.67,7.87-3.26c1.42-0.34,2.77-0.51,4.05-0.51c0.75,0,1.44,0.06,2.1,0.17
				C232.436,206.206,232.946,212.736,232.946,216.226z"/>
		</g>
	</g>
</g>
<g id="Search_Tab">
	<g id="Search_Taba_1_">
		<path id="XMLID_1165_" style="fill:#E6E6E6;" d="M257.172,195.975l0,22.14c0,1.657,1.163,2.329,2.598,1.5l145.099-83.773
			c1.435-0.828,2.598-2.843,2.598-4.5l-0.001-22.141c0-1.657-1.163-2.328-2.598-1.5l-145.098,83.774
			C258.336,192.303,257.172,194.318,257.172,195.975z"/>
		<g id="XMLID_1160_">
			<path id="XMLID_1164_" style="fill:#27DEBF;" d="M259.771,191.475l25.84-14.919l-0.003,28.143l-25.837,14.917
				c-1.435,0.828-2.598,0.157-2.598-1.5l0-22.14C257.172,194.318,258.336,192.303,259.771,191.475z"/>
			<path id="XMLID_1161_" style="fill:#FFFFFF;" d="M277.063,188.842c-1.635-0.943-3.697-0.792-5.808,0.427
				c-3.838,2.215-6.844,7.422-6.844,11.853c0,1.771,0.481,3.233,1.369,4.265l-2.75,4.761c-0.414,0.717-0.169,1.635,0.549,2.049
				c0.236,0.137,0.494,0.202,0.749,0.202c0.518,0,1.022-0.269,1.3-0.751l2.75-4.762c0.294,0.055,0.593,0.093,0.902,0.093
				c1.097,0,2.278-0.348,3.475-1.039c3.837-2.215,6.843-7.421,6.843-11.852C279.598,191.649,278.698,189.786,277.063,188.842z
				 M271.255,203.341c-1.127,0.65-2.152,0.807-2.809,0.426c-0.658-0.379-1.035-1.344-1.035-2.645c0-3.344,2.447-7.583,5.344-9.255
				c0.722-0.417,1.401-0.63,1.969-0.63c0.319,0,0.602,0.067,0.839,0.204c0.658,0.38,1.035,1.344,1.035,2.646
				C276.598,197.431,274.152,201.669,271.255,203.341z"/>
		</g>
	</g>
</g>
</svg>
