<svg width="154" height="144" viewBox="0 0 154 144" fill="none" xmlns="http://www.w3.org/2000/svg">
<path d="M4.70701 42.5811C0.342009 45.4835 -2.21635 51.6302 2.60627 58.9794C7.42888 66.3285 76.3286 115.936 78.854 117.313C81.3806 118.691 83.9083 118.921 90.3366 114.098C96.7683 109.274 150.5 71.5963 151.886 70.463C154.092 68.6598 154.642 64.2619 151.886 62.1941C151.886 62.1941 86.7914 107.667 84.66 109.505C82.5298 111.342 79.214 108.357 79.8363 104.453C80.462 100.548 80.9219 100.088 89.1897 94.1173C97.4575 88.1456 144.334 54.9823 146.46 53.5163C148.869 51.855 148.927 48.9208 144.982 46.3261C139.497 42.7185 80.2269 3.37105 78.2443 1.99364C76.256 0.615105 73.5045 -0.637375 69.3712 2.11857C65.2378 4.87451 12.7262 37.2475 4.70701 42.5811Z" fill="#991B1B"/>
<path d="M78.854 122.153C77.1961 121.248 46.9659 99.5816 25.0081 82.712V117.885C24.991 143.561 102.486 157.279 128.159 125.716V92.0984C112.388 103.222 93.9396 116.235 90.3365 118.937C83.9083 123.759 81.3806 123.53 78.854 122.153Z" fill="#991B1B"/>
<path d="M111.647 83.5864C111.647 83.5864 123.169 88.9938 123.989 110.754L118.407 109.318L113.941 118.174C112.051 94.3456 101.762 90.8901 101.762 90.8901L111.647 83.5864Z" fill="#F87171"/>
</svg>
