<svg width="394" height="144" viewBox="0 0 394 144" fill="none" xmlns="http://www.w3.org/2000/svg">
<path d="M4.70701 42.5811C0.342009 45.4835 -2.21635 51.6302 2.60627 58.9794C7.42888 66.3285 76.3286 115.936 78.854 117.313C81.3806 118.691 83.9083 118.921 90.3366 114.098C96.7683 109.274 150.5 71.5963 151.886 70.463C154.092 68.6598 154.642 64.2619 151.886 62.1941C151.886 62.1941 86.7914 107.667 84.66 109.505C82.5298 111.342 79.214 108.357 79.8363 104.453C80.462 100.548 80.9219 100.088 89.1897 94.1173C97.4575 88.1456 144.334 54.9823 146.46 53.5163C148.869 51.855 148.927 48.9208 144.982 46.3261C139.497 42.7185 80.2269 3.37105 78.2443 1.99364C76.256 0.615105 73.5045 -0.637375 69.3712 2.11857C65.2378 4.87451 12.7262 37.2475 4.70701 42.5811Z" fill="#991B1B"/>
<path d="M78.854 122.153C77.1961 121.248 46.9659 99.5816 25.0081 82.712V117.885C24.991 143.561 102.486 157.279 128.159 125.716V92.0984C112.388 103.222 93.9396 116.235 90.3365 118.937C83.9083 123.759 81.3806 123.53 78.854 122.153Z" fill="#991B1B"/>
<path d="M111.647 83.5864C111.647 83.5864 123.169 88.9938 123.989 110.754L118.407 109.318L113.941 118.174C112.051 94.3456 101.762 90.8901 101.762 90.8901L111.647 83.5864Z" fill="#F87171"/>
<path d="M179.097 121.527C177.241 121.527 175.529 121.191 173.961 120.519C172.393 119.815 171.145 118.695 170.217 117.159C169.289 115.623 168.825 113.591 168.825 111.063V96.615C168.825 94.087 169.289 92.055 170.217 90.519C171.177 88.983 172.441 87.879 174.009 87.207C175.577 86.503 177.289 86.151 179.145 86.151C181.321 86.151 183.177 86.519 184.713 87.255C186.249 87.991 187.433 88.999 188.265 90.279C189.097 91.527 189.513 92.935 189.513 94.503C189.513 95.399 189.337 95.991 188.985 96.279C188.665 96.567 188.169 96.711 187.497 96.711C186.857 96.711 186.361 96.583 186.009 96.327C185.689 96.071 185.513 95.735 185.481 95.319C185.449 94.839 185.353 94.295 185.193 93.687C185.065 93.047 184.777 92.439 184.329 91.863C183.913 91.255 183.289 90.759 182.457 90.375C181.657 89.991 180.585 89.799 179.241 89.799C177.193 89.799 175.609 90.359 174.489 91.479C173.401 92.567 172.857 94.279 172.857 96.615V111.063C172.857 113.399 173.417 115.127 174.537 116.247C175.657 117.335 177.273 117.879 179.385 117.879C180.729 117.879 181.785 117.687 182.553 117.303C183.353 116.919 183.945 116.439 184.329 115.863C184.713 115.287 184.985 114.679 185.145 114.039C185.305 113.367 185.417 112.743 185.481 112.167C185.513 111.687 185.705 111.335 186.057 111.111C186.409 110.887 186.889 110.775 187.497 110.775C188.169 110.775 188.665 110.935 188.985 111.255C189.337 111.543 189.513 112.135 189.513 113.031C189.513 114.599 189.081 116.039 188.217 117.351C187.385 118.631 186.185 119.655 184.617 120.423C183.081 121.159 181.241 121.527 179.097 121.527ZM194.515 121.239C194.195 121.239 193.827 121.175 193.411 121.047C193.027 120.887 192.707 120.679 192.451 120.423C192.227 120.167 192.115 119.879 192.115 119.559C192.115 119.431 192.131 119.303 192.163 119.175L202.003 87.255C202.131 86.775 202.435 86.423 202.915 86.199C203.395 85.975 203.907 85.863 204.451 85.863C205.027 85.863 205.555 85.991 206.035 86.247C206.515 86.471 206.819 86.807 206.947 87.255L216.739 119.175C216.803 119.303 216.835 119.415 216.835 119.511C216.835 119.831 216.691 120.119 216.403 120.375C216.147 120.631 215.827 120.839 215.443 120.999C215.059 121.159 214.691 121.239 214.339 121.239C213.987 121.239 213.683 121.175 213.427 121.047C213.171 120.887 212.995 120.647 212.899 120.327L210.739 113.175H198.115L196.051 120.327C195.955 120.647 195.763 120.887 195.475 121.047C195.219 121.175 194.899 121.239 194.515 121.239ZM199.075 109.863H209.827L204.451 91.815L199.075 109.863ZM229.356 121.623C227.308 121.623 225.516 121.319 223.98 120.711C222.444 120.071 221.26 119.335 220.428 118.503C219.596 117.639 219.18 116.871 219.18 116.199C219.18 115.879 219.26 115.559 219.42 115.239C219.612 114.887 219.836 114.599 220.092 114.375C220.38 114.119 220.668 113.991 220.956 113.991C221.34 113.991 221.708 114.183 222.06 114.567C222.444 114.951 222.908 115.415 223.452 115.959C224.028 116.471 224.764 116.919 225.66 117.303C226.556 117.687 227.724 117.879 229.164 117.879C230.508 117.879 231.676 117.671 232.668 117.255C233.66 116.807 234.428 116.151 234.972 115.287C235.548 114.391 235.836 113.271 235.836 111.927C235.836 110.551 235.548 109.431 234.972 108.567C234.396 107.703 233.628 106.983 232.668 106.407C231.74 105.831 230.716 105.319 229.596 104.871C228.508 104.423 227.388 103.975 226.236 103.527C225.116 103.047 224.092 102.471 223.164 101.799C222.236 101.095 221.484 100.199 220.908 99.111C220.332 98.023 220.044 96.647 220.044 94.983C220.044 93.223 220.364 91.767 221.004 90.615C221.644 89.463 222.492 88.551 223.548 87.879C224.604 87.207 225.74 86.743 226.956 86.487C228.204 86.199 229.42 86.055 230.604 86.055C231.468 86.055 232.38 86.119 233.34 86.247C234.3 86.375 235.212 86.567 236.076 86.823C236.94 87.079 237.644 87.415 238.188 87.831C238.732 88.215 239.004 88.679 239.004 89.223C239.004 89.479 238.94 89.783 238.812 90.135C238.684 90.455 238.492 90.759 238.236 91.047C237.98 91.303 237.66 91.431 237.276 91.431C236.924 91.431 236.492 91.287 235.98 90.999C235.468 90.679 234.78 90.375 233.916 90.087C233.084 89.767 231.98 89.607 230.604 89.607C229.452 89.607 228.364 89.767 227.34 90.087C226.348 90.407 225.548 90.935 224.94 91.671C224.364 92.407 224.076 93.383 224.076 94.599C224.076 95.751 224.364 96.695 224.94 97.431C225.516 98.167 226.268 98.775 227.196 99.255C228.124 99.735 229.148 100.183 230.268 100.599C231.388 100.983 232.508 101.447 233.628 101.991C234.748 102.503 235.772 103.143 236.7 103.911C237.66 104.679 238.428 105.687 239.004 106.935C239.58 108.151 239.868 109.687 239.868 111.543C239.868 113.847 239.404 115.751 238.476 117.255C237.58 118.727 236.348 119.831 234.78 120.567C233.212 121.271 231.404 121.623 229.356 121.623ZM253.263 121.239C252.751 121.239 252.287 121.127 251.871 120.903C251.455 120.647 251.247 120.279 251.247 119.799V89.895H243.471C243.055 89.895 242.719 89.703 242.463 89.319C242.207 88.935 242.079 88.487 242.079 87.975C242.079 87.527 242.191 87.111 242.415 86.727C242.639 86.343 242.991 86.151 243.471 86.151H263.055C263.535 86.151 263.887 86.343 264.111 86.727C264.335 87.111 264.447 87.527 264.447 87.975C264.447 88.455 264.335 88.903 264.111 89.319C263.887 89.703 263.535 89.895 263.055 89.895H255.279V119.799C255.279 120.279 255.071 120.647 254.655 120.903C254.239 121.127 253.775 121.239 253.263 121.239ZM265.484 121.239C265.164 121.239 264.796 121.175 264.38 121.047C263.996 120.887 263.676 120.679 263.42 120.423C263.196 120.167 263.084 119.879 263.084 119.559C263.084 119.431 263.1 119.303 263.132 119.175L272.972 87.255C273.1 86.775 273.404 86.423 273.884 86.199C274.364 85.975 274.876 85.863 275.42 85.863C275.996 85.863 276.524 85.991 277.004 86.247C277.484 86.471 277.788 86.807 277.916 87.255L287.708 119.175C287.772 119.303 287.804 119.415 287.804 119.511C287.804 119.831 287.66 120.119 287.372 120.375C287.116 120.631 286.796 120.839 286.412 120.999C286.028 121.159 285.66 121.239 285.308 121.239C284.956 121.239 284.652 121.175 284.396 121.047C284.14 120.887 283.964 120.647 283.868 120.327L281.708 113.175H269.084L267.02 120.327C266.924 120.647 266.732 120.887 266.444 121.047C266.188 121.175 265.868 121.239 265.484 121.239ZM270.044 109.863H280.796L275.42 91.815L270.044 109.863ZM293.989 121.239C293.509 121.239 293.045 121.127 292.597 120.903C292.181 120.647 291.973 120.279 291.973 119.799V87.543C291.973 87.031 292.181 86.679 292.597 86.487C293.045 86.263 293.509 86.151 293.989 86.151C294.501 86.151 294.933 86.247 295.285 86.439C295.637 86.631 295.957 86.919 296.245 87.303C296.533 87.655 296.821 88.119 297.109 88.695L309.013 112.071V87.543C309.013 87.063 309.221 86.711 309.637 86.487C310.085 86.263 310.549 86.151 311.029 86.151C311.541 86.151 312.005 86.263 312.421 86.487C312.837 86.711 313.045 87.063 313.045 87.543V119.799C313.045 120.279 312.837 120.647 312.421 120.903C312.005 121.127 311.541 121.239 311.029 121.239C310.517 121.239 310.037 121.063 309.589 120.711C309.173 120.359 308.821 119.927 308.533 119.415L296.005 95.271V119.799C296.005 120.279 295.797 120.647 295.381 120.903C294.965 121.127 294.501 121.239 293.989 121.239ZM321.927 121.239C321.447 121.239 320.983 121.127 320.535 120.903C320.119 120.647 319.911 120.279 319.911 119.799V87.543C319.911 87.063 320.119 86.711 320.535 86.487C320.983 86.263 321.447 86.151 321.927 86.151C322.439 86.151 322.903 86.263 323.319 86.487C323.735 86.711 323.943 87.063 323.943 87.543V101.367H336.951V87.543C336.951 87.063 337.159 86.711 337.575 86.487C338.023 86.263 338.487 86.151 338.967 86.151C339.479 86.151 339.943 86.263 340.359 86.487C340.775 86.711 340.983 87.063 340.983 87.543V119.799C340.983 120.279 340.775 120.647 340.359 120.903C339.943 121.127 339.479 121.239 338.967 121.239C338.487 121.239 338.023 121.127 337.575 120.903C337.159 120.647 336.951 120.279 336.951 119.799V104.727H323.943V119.799C323.943 120.279 323.735 120.647 323.319 120.903C322.903 121.127 322.439 121.239 321.927 121.239ZM347.656 121.239C347.336 121.239 346.968 121.175 346.552 121.047C346.168 120.887 345.848 120.679 345.592 120.423C345.368 120.167 345.256 119.879 345.256 119.559C345.256 119.431 345.272 119.303 345.304 119.175L355.144 87.255C355.272 86.775 355.576 86.423 356.056 86.199C356.536 85.975 357.048 85.863 357.592 85.863C358.168 85.863 358.696 85.991 359.176 86.247C359.656 86.471 359.96 86.807 360.088 87.255L369.88 119.175C369.944 119.303 369.976 119.415 369.976 119.511C369.976 119.831 369.832 120.119 369.544 120.375C369.288 120.631 368.968 120.839 368.584 120.999C368.2 121.159 367.832 121.239 367.48 121.239C367.128 121.239 366.824 121.175 366.568 121.047C366.312 120.887 366.136 120.647 366.04 120.327L363.88 113.175H351.256L349.192 120.327C349.096 120.647 348.904 120.887 348.616 121.047C348.36 121.175 348.04 121.239 347.656 121.239ZM352.216 109.863H362.968L357.592 91.815L352.216 109.863ZM375.969 121.239C375.521 121.239 375.105 121.127 374.721 120.903C374.337 120.647 374.145 120.279 374.145 119.799V87.543C374.145 87.063 374.353 86.711 374.769 86.487C375.217 86.263 375.681 86.151 376.161 86.151C376.673 86.151 377.137 86.263 377.553 86.487C377.969 86.711 378.177 87.063 378.177 87.543V117.591H391.329C391.777 117.591 392.097 117.783 392.289 118.167C392.513 118.519 392.625 118.935 392.625 119.415C392.625 119.863 392.513 120.279 392.289 120.663C392.097 121.047 391.777 121.239 391.329 121.239H375.969Z" fill="#450A0A"/>
<path d="M180.772 69.239C179.839 69.239 178.999 69.0523 178.252 68.679C177.506 68.2683 177.132 67.671 177.132 66.887V34.855H168.9C168.191 34.855 167.631 34.519 167.22 33.847C166.81 33.175 166.604 32.4096 166.604 31.551C166.604 30.767 166.791 30.039 167.164 29.367C167.538 28.6576 168.116 28.303 168.9 28.303H192.588C193.41 28.303 193.988 28.6576 194.324 29.367C194.698 30.039 194.884 30.767 194.884 31.551C194.884 32.4096 194.679 33.175 194.268 33.847C193.895 34.519 193.335 34.855 192.588 34.855H184.412V66.887C184.412 67.671 184.02 68.2683 183.236 68.679C182.49 69.0523 181.668 69.239 180.772 69.239ZM212.045 69.575C209.506 69.575 207.229 69.1643 205.213 68.343C203.197 67.4843 201.591 66.1216 200.397 64.255C199.202 62.351 198.605 59.831 198.605 56.695V30.599C198.605 29.7776 198.978 29.199 199.725 28.863C200.471 28.4896 201.311 28.303 202.245 28.303C203.141 28.303 203.962 28.4896 204.709 28.863C205.493 29.199 205.885 29.7776 205.885 30.599V56.695C205.885 58.8976 206.426 60.5403 207.509 61.623C208.591 62.6683 210.103 63.191 212.045 63.191C213.949 63.191 215.442 62.6683 216.525 61.623C217.645 60.5403 218.205 58.8976 218.205 56.695V30.599C218.205 29.7776 218.559 29.199 219.269 28.863C220.015 28.4896 220.874 28.303 221.845 28.303C222.741 28.303 223.562 28.4896 224.309 28.863C225.093 29.199 225.485 29.7776 225.485 30.599V56.695C225.485 59.831 224.887 62.351 223.693 64.255C222.498 66.1216 220.874 67.4843 218.821 68.343C216.805 69.1643 214.546 69.575 212.045 69.575ZM243.335 69.239C242.401 69.239 241.561 69.0523 240.815 68.679C240.068 68.2683 239.695 67.671 239.695 66.887V34.855H231.463C230.753 34.855 230.193 34.519 229.783 33.847C229.372 33.175 229.167 32.4096 229.167 31.551C229.167 30.767 229.353 30.039 229.727 29.367C230.1 28.6576 230.679 28.303 231.463 28.303H255.151C255.972 28.303 256.551 28.6576 256.887 29.367C257.26 30.039 257.447 30.767 257.447 31.551C257.447 32.4096 257.241 33.175 256.831 33.847C256.457 34.519 255.897 34.855 255.151 34.855H246.975V66.887C246.975 67.671 246.583 68.2683 245.799 68.679C245.052 69.0523 244.231 69.239 243.335 69.239ZM273.282 69.575C270.818 69.575 268.596 69.1643 266.618 68.343C264.639 67.4843 263.052 66.1216 261.858 64.255C260.7 62.351 260.122 59.831 260.122 56.695V41.183C260.122 38.047 260.7 35.5456 261.858 33.679C263.052 31.775 264.62 30.4123 266.562 29.591C268.54 28.7323 270.78 28.303 273.282 28.303C275.746 28.303 277.967 28.7323 279.946 29.591C281.962 30.4123 283.548 31.775 284.706 33.679C285.863 35.5456 286.442 38.047 286.442 41.183V56.695C286.442 59.831 285.863 62.351 284.706 64.255C283.548 66.1216 281.962 67.4843 279.946 68.343C277.967 69.1643 275.746 69.575 273.282 69.575ZM273.282 63.191C275.111 63.191 276.548 62.6683 277.594 61.623C278.639 60.5776 279.162 58.935 279.162 56.695V41.183C279.162 38.943 278.639 37.3003 277.594 36.255C276.548 35.2096 275.111 34.687 273.282 34.687C271.452 34.687 270.015 35.2096 268.97 36.255C267.962 37.3003 267.458 38.943 267.458 41.183V56.695C267.458 58.935 267.962 60.5776 268.97 61.623C270.015 62.6683 271.452 63.191 273.282 63.191ZM315.182 69.519C314.697 69.519 314.211 69.3696 313.726 69.071C313.278 68.7723 312.923 68.343 312.662 67.783L304.71 52.327H300.006V66.887C300.006 67.671 299.633 68.2683 298.886 68.679C298.139 69.0523 297.299 69.239 296.366 69.239C295.47 69.239 294.63 69.0523 293.846 68.679C293.099 68.2683 292.726 67.671 292.726 66.887V30.599C292.726 29.9643 292.931 29.423 293.342 28.975C293.79 28.527 294.369 28.303 295.078 28.303H306.166C308.63 28.303 310.851 28.6576 312.83 29.367C314.846 30.0763 316.451 31.2896 317.646 33.007C318.841 34.687 319.438 37.0203 319.438 40.007C319.438 42.1723 319.121 44.0203 318.486 45.551C317.851 47.0443 316.974 48.2576 315.854 49.191C314.771 50.087 313.521 50.759 312.102 51.207L319.494 64.815C319.569 64.9643 319.625 65.1323 319.662 65.319C319.699 65.4683 319.718 65.599 319.718 65.711C319.718 66.3083 319.494 66.9056 319.046 67.503C318.598 68.1003 318.019 68.5856 317.31 68.959C316.638 69.3323 315.929 69.519 315.182 69.519ZM300.006 46.615H306.166C307.995 46.615 309.451 46.167 310.534 45.271C311.617 44.375 312.158 42.8443 312.158 40.679C312.158 38.439 311.617 36.8896 310.534 36.031C309.451 35.135 307.995 34.687 306.166 34.687H300.006V46.615ZM328.194 69.239C327.298 69.239 326.458 69.0523 325.674 68.679C324.927 68.2683 324.554 67.671 324.554 66.887V30.599C324.554 29.7776 324.927 29.199 325.674 28.863C326.458 28.4896 327.298 28.303 328.194 28.303C329.127 28.303 329.967 28.4896 330.714 28.863C331.461 29.199 331.834 29.7776 331.834 30.599V66.887C331.834 67.671 331.461 68.2683 330.714 68.679C329.967 69.0523 329.127 69.239 328.194 69.239ZM340.345 69.239C339.673 69.239 338.982 69.1083 338.273 68.847C337.563 68.5856 336.966 68.231 336.481 67.783C335.995 67.335 335.753 66.8123 335.753 66.215C335.753 66.103 335.771 65.9163 335.809 65.655L346.617 30.431C346.878 29.6096 347.457 28.9936 348.353 28.583C349.286 28.1723 350.275 27.967 351.321 27.967C352.403 27.967 353.393 28.1723 354.289 28.583C355.185 28.9936 355.763 29.6096 356.025 30.431L366.833 65.655C366.907 65.9163 366.945 66.103 366.945 66.215C366.945 66.775 366.683 67.2976 366.161 67.783C365.675 68.231 365.078 68.5856 364.369 68.847C363.659 69.1083 362.969 69.239 362.297 69.239C361.699 69.239 361.177 69.1456 360.729 68.959C360.318 68.735 360.038 68.343 359.889 67.783L357.761 60.335H344.881L342.809 67.783C342.659 68.343 342.361 68.735 341.913 68.959C341.465 69.1456 340.942 69.239 340.345 69.239ZM346.449 54.623H356.193L351.321 37.431L346.449 54.623Z" fill="#991B1B"/>
</svg>
